<?xml version="1.0" encoding="utf-8"?>
<!-- Generator: Adobe Illustrator 24.3.0, SVG Export Plug-In . SVG Version: 6.00 Build 0)  -->
<svg version="1.1" id="Layer_1" xmlns="http://www.w3.org/2000/svg" xmlns:xlink="http://www.w3.org/1999/xlink" x="0px" y="0px"
	 viewBox="0 0 1000 1000" style="enable-background:new 0 0 1000 1000;" xml:space="preserve">
<style type="text/css">
	.st0{fill:#FA877C;}
	.st1{fill:#EF6761;}
	.st2{fill:#7CD5C1;}
	.st3{fill:#353535;}
	.st4{fill:#5E5E5E;}
	.st5{fill:#F0D0C0;}
	.st6{fill:#FFFFFF;}
</style>
<g>
	<path class="st0" d="M274.9,672.7h75.3c8.8,0,15.9,7.1,15.9,15.9v0c0,8.8-7.1,15.9-15.9,15.9h-75.3c-8.8,0-15.9-7.1-15.9-15.9v0
		C259,679.8,266.1,672.7,274.9,672.7z"/>
	<path class="st1" d="M291.6,640.9h75.3c8.8,0,15.9,7.1,15.9,15.9v0c0,8.8-7.1,15.9-15.9,15.9h-75.3c-8.8,0-15.9-7.1-15.9-15.9v0
		C275.7,648,282.8,640.9,291.6,640.9z"/>
	<path class="st2" d="M317,609.1h75.3c8.8,0,15.9,7.1,15.9,15.9v0c0,8.8-7.1,15.9-15.9,15.9H317c-8.8,0-15.9-7.1-15.9-15.9v0
		C301.1,616.2,308.2,609.1,317,609.1z"/>
	<g>
		<path class="st0" d="M536.2,295.5c0,0,12.9,29.2,84.4,25.8l-12.5,55.1C608.1,376.5,522,364.9,536.2,295.5z"/>
	</g>
	<g>
		<path class="st4" d="M705.9,527.5c39.1-30,46.7-86,16.8-125.3c-29.9-39.3-85.8-47.1-125.3-17.5L705.9,527.5z"/>
	</g>
	<g>
		<path class="st5" d="M731.7,416.5c-2.5-5-5.5-9.9-9-14.6c-29.9-39.3-85.8-47.1-125.3-17.4l72.1,95
			C701.7,474.3,726.9,448.8,731.7,416.5z"/>
	</g>
	<g>
		<polygon class="st0" points="549.7,396.3 638.4,363.4 638.4,545.1 549.7,545.1 		"/>
	</g>
	<g>
		<circle class="st0" cx="624.7" cy="396.3" r="75"/>
	</g>
	<g>
		<g>
			<circle class="st6" cx="638.4" cy="406.9" r="37.7"/>
		</g>
		<g>
			<g>
				<circle class="st4" cx="638.4" cy="406.9" r="18.8"/>
			</g>
			<g>
				<circle class="st6" cx="628.5" cy="393.1" r="11.5"/>
			</g>
			<g>
				<circle class="st6" cx="643.7" cy="410.8" r="6.3"/>
			</g>
		</g>
	</g>
	<g>
		<path class="st0" d="M341.8,704.5h155.7c77.8,0,140.9-63.1,140.9-140.9v-18.5H501.2C413.2,545.1,341.8,616.5,341.8,704.5
			L341.8,704.5z"/>
	</g>
	<g>
		<path class="st1" d="M581.8,568.3c0,0-20.9,115.8-222.8,64.4c0,0,20.2-42.7,54.2-58.1C447.2,559.1,581.8,568.3,581.8,568.3z"/>
	</g>
	<g>
		<path class="st1" d="M566,516.6c31.8,31.8,16.5,85.8-27.1,96.7c-56,14-117.8-1-161.6-44.8c-66.5-66.5-66.5-174.2,0-240.6
			L566,516.6z"/>
	</g>
	<g>
		<path class="st0" d="M521.5,472.1c-39.8,39.8-104.3,39.8-144,0s-39.8-104.3,0-144L521.5,472.1z"/>
	</g>
	<g>
		<g>
			<path class="st2" d="M496.1,633.9l-5.9-0.4l-3-0.2l-2.9-0.4l-5.9-0.7l-5.8-1c-1-0.2-1.9-0.3-2.9-0.5l-2.9-0.6
				c-1.9-0.4-3.8-0.8-5.8-1.3l-5.7-1.5c-0.9-0.3-1.9-0.5-2.8-0.8l-2.8-0.9c-1.9-0.6-3.7-1.2-5.6-1.8l-5.5-2.1
				c-0.9-0.4-1.8-0.7-2.7-1l-2.7-1.2c-1.8-0.8-3.6-1.5-5.4-2.3l-5.3-2.6c-0.9-0.4-1.8-0.8-2.6-1.3l-2.6-1.4l-5.1-2.8l-5-3.1
				c-26.3-16.5-47.8-39.7-62.4-66.3c-14.5-26.7-21.8-56.8-21.3-86.5c0.5-29.7,8.6-58.9,23.2-84c-12.3,26.3-17.5,55.5-15.4,83.8
				c2.1,28.3,11.5,55.7,26.9,78.7c15.4,23,36.6,41.8,60.6,54.1l4.5,2.3l4.6,2l2.3,1c0.8,0.3,1.6,0.6,2.4,0.9l4.7,1.8
				c1.6,0.5,3.2,1.1,4.8,1.6l2.4,0.8c0.8,0.3,1.6,0.5,2.4,0.7l4.8,1.3c1.6,0.4,3.3,0.7,4.9,1.1l2.4,0.5c0.8,0.2,1.6,0.3,2.5,0.4
				l4.9,0.9l5,0.6l2.5,0.3c0.8,0.1,1.7,0.1,2.5,0.2l5,0.4l5,0.2l2.5,0.1l2.5,0l4.9-0.1l0.6,0c8.6-0.1,15.7,6.7,15.9,15.4
				c0.1,8.6-6.7,15.7-15.4,15.9C497,634,496.5,634,496.1,633.9z"/>
		</g>
	</g>
</g>
</svg>
